ffmpeg started on 2016-11-23 at 18:34:51
Report written to "Output/NVENCh264/results/ffmpeg/old_town_cross_2160p50fast4500k.log"
Command line:
Tools/ffmpeg/ffmpeg -benchmark -y -i Input/y4m/old_town_cross_2160p50.y4m -c:v h264_nvenc -preset fast -b:v 4500k -an Output/NVENCh264/encoded/old_town_cross_2160p50fast4500k.mkv
ffmpeg version N-82227-gdb23fde Copyright (c) 2000-2016 the FFmpeg developers
  built with gcc 5.4.0 (Ubuntu 5.4.0-6ubuntu1~16.04.2) 20160609
  configuration: --prefix=/home/jaroslav/ffmpeg_build --pkg-config-flags=--static --extra-cflags=-I/home/jaroslav/ffmpeg_build/include --extra-ldflags=-L/home/jaroslav/ffmpeg_build/lib --bindir=/home/jaroslav/bin --enable-gpl --enable-libass --enable-libfdk-aac --enable-libfreetype --enable-libmp3lame --enable-libopus --enable-libtheora --enable-libvorbis --enable-libvpx --enable-libx264 --enable-libx265 --enable-nvenc --enable-libmfx --enable-libxvid --enable-libgsm --enable-libopencore-amrnb --enable-version3 --enable-nonfree
  libavutil      55. 35.100 / 55. 35.100
  libavcodec     57. 66.101 / 57. 66.101
  libavformat    57. 57.100 / 57. 57.100
  libavdevice    57.  2.100 / 57.  2.100
  libavfilter     6. 66.100 /  6. 66.100
  libswscale      4.  3.100 /  4.  3.100
  libswresample   2.  4.100 /  2.  4.100
  libpostproc    54.  2.100 / 54.  2.100
Input #0, yuv4mpegpipe, from 'Input/y4m/old_town_cross_2160p50.y4m':
  Duration: 00:00:10.00, start: 0.000000, bitrate: 4976642 kb/s
    Stream #0:0: Video: rawvideo (I420 / 0x30323449), yuv420p(progressive), 3840x2160, SAR 1:1 DAR 16:9, 50 fps, 50 tbr, 50 tbn, 50 tbc
Output #0, matroska, to 'Output/NVENCh264/encoded/old_town_cross_2160p50fast4500k.mkv':
  Metadata:
    encoder         : Lavf57.57.100
    Stream #0:0: Video: h264 (h264_nvenc) (Main) (H264 / 0x34363248), yuv420p, 3840x2160 [SAR 1:1 DAR 16:9], q=-1--1, 4500 kb/s, 50 fps, 1k tbn, 50 tbc
    Metadata:
      encoder         : Lavc57.66.101 h264_nvenc
    Side data:
      cpb: bitrate max/min/avg: 0/0/4500000 buffer size: 9000000 vbv_delay: -1
Stream mapping:
  Stream #0:0 -> #0:0 (rawvideo (native) -> h264 (h264_nvenc))
Press [q] to stop, [?] for help
frame=   20 fps=0.0 q=0.0 size=       0kB time=00:00:00.00 bitrate=N/A speed=   0x    frame=   38 fps= 36 q=48.0 size=       1kB time=00:00:00.14 bitrate=  41.6kbits/s speed=0.135x    frame=   56 fps= 36 q=46.0 size=       1kB time=00:00:00.50 bitrate=  11.7kbits/s speed=0.321x    frame=   74 fps= 36 q=45.0 size=       1kB time=00:00:00.86 bitrate=   6.8kbits/s speed=0.414x    frame=   92 fps= 35 q=45.0 size=       1kB time=00:00:01.22 bitrate=   4.8kbits/s speed=0.47x    frame=  110 fps= 35 q=44.0 size=       1kB time=00:00:01.58 bitrate=   3.7kbits/s speed=0.508x    frame=  128 fps= 35 q=44.0 size=       1kB time=00:00:01.94 bitrate=   3.0kbits/s speed=0.534x    frame=  146 fps= 35 q=44.0 size=       1kB time=00:00:02.30 bitrate=   2.5kbits/s speed=0.555x    frame=  164 fps= 35 q=42.0 size=       1kB time=00:00:02.66 bitrate=   2.2kbits/s speed=0.571x    frame=  182 fps= 35 q=41.0 size=       1kB time=00:00:03.02 bitrate=   1.9kbits/s speed=0.584x    frame=  200 fps= 35 q=41.0 size=       1kB time=00:00:03.38 bitrate=   1.7kbits/s speed=0.595x    frame=  218 fps= 35 q=41.0 size=       1kB time=00:00:03.74 bitrate=   1.6kbits/s speed=0.603x    frame=  236 fps= 35 q=41.0 size=       1kB time=00:00:04.10 bitrate=   1.4kbits/s speed=0.611x    frame=  254 fps= 35 q=39.0 size=       1kB time=00:00:04.46 bitrate=   1.3kbits/s speed=0.617x    frame=  272 fps= 35 q=39.0 size=       1kB time=00:00:04.82 bitrate=   1.2kbits/s speed=0.623x    frame=  290 fps= 35 q=40.0 size=    1816kB time=00:00:05.18 bitrate=2872.0kbits/s speed=0.627x    frame=  308 fps= 35 q=41.0 size=    1816kB time=00:00:05.54 bitrate=2685.4kbits/s speed=0.632x    frame=  326 fps= 35 q=40.0 size=    1816kB time=00:00:05.90 bitrate=2521.6kbits/s speed=0.636x    frame=  344 fps= 35 q=39.0 size=    1816kB time=00:00:06.26 bitrate=2376.6kbits/s speed=0.639x    frame=  362 fps= 35 q=39.0 size=    1816kB time=00:00:06.62 bitrate=2247.4kbits/s speed=0.643x    frame=  380 fps= 35 q=39.0 size=    1816kB time=00:00:06.98 bitrate=2131.5kbits/s speed=0.645x    frame=  398 fps= 35 q=39.0 size=    1816kB time=00:00:07.34 bitrate=2026.9kbits/s speed=0.648x    frame=  416 fps= 35 q=39.0 size=    1816kB time=00:00:07.70 bitrate=1932.2kbits/s speed=0.65x    frame=  434 fps= 35 q=40.0 size=    1816kB time=00:00:08.06 bitrate=1845.9kbits/s speed=0.652x    frame=  452 fps= 35 q=39.0 size=    1816kB time=00:00:08.42 bitrate=1767.0kbits/s speed=0.655x    frame=  470 fps= 35 q=39.0 size=    1816kB time=00:00:08.78 bitrate=1694.5kbits/s speed=0.656x    frame=  488 fps= 35 q=38.0 size=    1816kB time=00:00:09.14 bitrate=1627.8kbits/s speed=0.658x    frame=  500 fps= 35 q=40.0 Lsize=    4157kB time=00:00:09.98 bitrate=3412.2kbits/s speed=0.699x    
video:4153kB audio:0kB subtitle:0kB other streams:0kB global headers:0kB muxing overhead: 0.101580%
bench: utime=1.084s
bench: maxrss=1008872kB
